<svg viewBox="0 0 64 64" xmlns="http://www.w3.org/2000/svg"><g data-name="Stroke copy 3"><path d="m42 59-4-3-4 3V49h8v10z" fill="#5468bf" class="fill-cff09e"></path><path d="M19.45 51H50v-6H12a4 4 0 0 0-4 4v8a4 4 0 0 0 4 4h38v-4H15v-1.55A4.45 4.45 0 0 1 19.45 51Z" fill="#6887d4" class="fill-79bd9a"></path><path d="M14 49h36v8H14a2 2 0 0 1-2-2v-4a2 2 0 0 1 2-2Z" fill="#5468bf" class="fill-cff09e"></path><path d="m43 57-4-3-4 3v-8h8v8z" fill="#5177c4" class="fill-a8dba8"></path><path d="M11 11h32a4 4 0 0 1 4 4v6a4 4 0 0 1-4 4H11V11Z" fill="#6887d4" class="fill-79bd9a"></path><path d="M11 14h31a1 1 0 0 1 1 1v6a1 1 0 0 1-1 1H11v-8Z" fill="#5177c4" class="fill-a8dba8"></path><path d="M21 25h-2a4 4 0 0 0 0 8h34v-4H25a4 4 0 0 1-4-4ZM20 33h-1a6 6 0 0 0 0 12h26V35H22a2 2 0 0 1-2-2Z" fill="#5468bf" class="fill-cff09e"></path><path d="M20 36h25v6H20a3 3 0 0 1-3-3 3 3 0 0 1 3-3Z" fill="#5177c4" class="fill-a8dba8"></path><path d="M19 3h-5v8h40a2 2 0 0 0 2-2V7H23a4 4 0 0 1-4-4Z" fill="#5468bf" class="fill-cff09e"></path><path d="m27 15-3-3-3 3V7h6v8z" fill="#5177c4" class="fill-a8dba8"></path></g><g data-name="Stroke Close copy 3"><path d="M14 48a1 1 0 0 0 0 2h20v2H14a1 1 0 0 0 0 2h20v3a1 1 0 0 0 1.6.8l3.4-2.55 3.4 2.55a1 1 0 0 0 1.05.09A1 1 0 0 0 44 57v-3h2a1 1 0 0 0 0-2h-2v-2h2a1 1 0 0 0 0-2Zm28 7-2.4-1.8a1 1 0 0 0-1.2 0L36 55v-5h6Z" fill="#9bb1f2" class="fill-3b8686"></path><path d="M29 56H14a1 1 0 0 0 0 2h15a1 1 0 0 0 0-2ZM24 28h-4a1 1 0 0 0 0 2h4a1 1 0 0 0 0-2ZM31 28h-3a1 1 0 0 0 0 2h3a1 1 0 0 0 0-2ZM33 19h-3a1 1 0 0 0 0 2h3a1 1 0 0 0 0-2ZM41 19h-4a1 1 0 0 0 0 2h4a1 1 0 0 0 0-2ZM34 8h18a1 1 0 0 0 0-2H34a1 1 0 0 0 0 2Z" fill="#9bb1f2" class="fill-3b8686"></path><path d="M57 9V5a3 3 0 0 0-3-3H14a1 1 0 0 0-1 1v7H8a1 1 0 0 0 0 2h2v12H8a1 1 0 0 0 0 2h7a4.91 4.91 0 0 0 .75 6.79A7 7 0 0 0 14.11 44H12a5 5 0 0 0-5 5v8a5 5 0 0 0 5 5h38a1 1 0 0 0 1-1V45a1 1 0 0 0-1-1h-4V34h10a1 1 0 0 0 0-2h-2v-6h2a1 1 0 0 0 0-2h-9a4.92 4.92 0 0 0 1-3v-6a4.92 4.92 0 0 0-1-3h7a3 3 0 0 0 3-3ZM15 4h39a1 1 0 0 1 1 1v4a1 1 0 0 1-1 1H28V8h2a1 1 0 0 0 0-2H19a1 1 0 0 0 0 2h1v2h-5Zm-3 10v-2h8v2Zm14-2-1.2-1.6a1 1 0 0 0-1.6 0L22 12V8h4Zm-2 .67L25 14h-2ZM49 60H12a3 3 0 0 1-3-3v-8a3 3 0 0 1 3-3h37Zm-5-24H19a1 1 0 0 0 0 2h25v2H19a1 1 0 0 0 0 2h25v2H19a5 5 0 0 1 0-10h25Zm8-8H35a1 1 0 0 0 0 2h17v2H19a3 3 0 0 1 0-6h33Zm-6-13v6a3 3 0 0 1-3 3H12v-3h14a1 1 0 0 0 0-2H12v-3h30a1 1 0 0 0 0-2H28v-2h15a3 3 0 0 1 3 3Z" fill="#9bb1f2" class="fill-3b8686"></path></g></svg>