<svg data-name="Layer 3" viewBox="0 0 32 32" xmlns="http://www.w3.org/2000/svg"><path d="M8.25 25a5 5 0 0 1-4.9-6 5.12 5.12 0 0 1 5.08-4H10v10ZM23.75 25a5 5 0 0 0 4.9-6 5.12 5.12 0 0 0-5.08-4H22v10Z" stroke-width="2px" fill="none" stroke="#4e8df2" stroke-linecap="round" stroke-linejoin="round" class="stroke-0832ff"></path><path d="M7 15v-1.18a9.11 9.11 0 0 1 6.91-9A9 9 0 0 1 25 13.61V15M10 25h0a3 3 0 0 0 3 3" stroke-width="2px" fill="none" stroke="#4e8df2" stroke-linecap="round" stroke-linejoin="round" class="stroke-0832ff"></path><circle cx="16" cy="28" r="1" fill="#4e8df2" class="fill-0832ff"></circle><path d="M7.5 15.5v9" fill="none" stroke="#4e8df2" stroke-linecap="round" stroke-linejoin="round" class="stroke-0832ff"></path><path d="M22 15h2v10h-2z" fill="#4e8df2" class="fill-0832ff"></path></svg>