<?xml version="1.0" ?><svg viewBox="0 0 64 64" xmlns="http://www.w3.org/2000/svg"><defs><style>.cls-1{fill:#8bc4ff;}.cls-2{fill:#2e58ff;}</style></defs><title/><g id="Payment"><circle class="cls-1" cx="32" cy="32" r="18"/><path class="cls-2" d="M32,52A20,20,0,1,0,12,32,20,20,0,0,0,32,52Zm0-36A16,16,0,1,1,16,32,16,16,0,0,1,32,16Z"/><path class="cls-2" d="M11.92,7.1,9.41,4.59A2,2,0,0,0,6,6c0,8.32,0,8.06,0,8.34A2,2,0,0,0,8,16h8a2,2,0,0,0,1.41-3.41L14.77,9.94C33.11-4.37,60,8.75,60,32A28,28,0,1,1,5.6,22.67a2,2,0,0,0-3.76-1.34A32,32,0,1,0,64,32C64,5.16,32.79-9.7,11.92,7.1Z"/><path class="cls-2" d="M33,38H27a2,2,0,0,0,0,4h3v1a2,2,0,0,0,4,0V41.91A6,6,0,0,0,33,30H31a2,2,0,0,1,0-4h6a2,2,0,0,0,0-4H34V21a2,2,0,0,0-4,0v1.09A6,6,0,0,0,31,34h2a2,2,0,0,1,0,4Z"/></g></svg>