<svg viewBox="0 0 64 64" xmlns="http://www.w3.org/2000/svg"><g data-name="Stroke copy 3"><path d="M42 47a24 24 0 0 1-24-24V7h-7v44a4 4 0 0 0 4 4h36v-8Z" fill="#1b49b5" class="fill-cff09e"></path><path d="M15 3h36v8H15a4 4 0 0 1-4-4 4 4 0 0 1 4-4Z" fill="#3461ba" class="fill-a8dba8"></path><path d="M21 19h22v6H21z" fill="#455f9e" class="fill-79bd9a"></path><circle cx="47" cy="47" r="14" fill="#3461ba" class="fill-a8dba8"></circle></g><g data-name="Stroke Close copy 3"><path d="M17 8h10a1 1 0 0 0 0-2H17a1 1 0 0 0 0 2Z" fill="#92a8e8" class="fill-3b8686"></path><path d="M52 32.88V3a1 1 0 0 0-1-1H15a5 5 0 0 0-5 5v44a5 5 0 0 0 5 5h20a15 15 0 1 0 17-23.12ZM15 4h35v2H31a1 1 0 0 0 0 2h19v2H15a3 3 0 0 1 0-6Zm0 50a3 3 0 0 1-3-3V11a4.92 4.92 0 0 0 3 1h35v20.3a14.82 14.82 0 0 0-3-.3 15 15 0 0 0-13.26 22Zm32 6a13 13 0 1 1 13-13 13 13 0 0 1-13 13Z" fill="#92a8e8" class="fill-3b8686"></path><path d="M53.85 41.22 43.24 51.83l-3.53-3.54a1 1 0 0 0-1.42 1.42L42.54 54a1 1 0 0 0 .7.29A1 1 0 0 0 44 54l11.26-11.36a1 1 0 0 0 0-1.42 1 1 0 0 0-1.41 0ZM21 26h22a1 1 0 0 0 1-1v-6a1 1 0 0 0-1-1H21a1 1 0 0 0-1 1v6a1 1 0 0 0 1 1Zm1-6h20v4H22ZM21 32h16a1 1 0 0 0 0-2H21a1 1 0 0 0 0 2ZM31 36H21a1 1 0 0 0 0 2h10a1 1 0 0 0 0-2ZM27 42h-6a1 1 0 0 0 0 2h6a1 1 0 0 0 0-2Z" fill="#92a8e8" class="fill-3b8686"></path></g></svg>