<svg viewBox="0 0 64 64" xmlns="http://www.w3.org/2000/svg"><g data-name="Stroke copy 3"><path d="M54 47a24 24 0 0 1-21.38-13.11A1.84 1.84 0 0 1 32 34a2 2 0 0 1-.89-3.78A23.91 23.91 0 0 1 30 23V7h-7v23.28a2 2 0 0 1 0 3.44V51a4 4 0 0 0 4 4h34v-8Z" fill="#7991e8" class="fill-cff09e"></path><path d="M27 3h34v8H27a4 4 0 0 1-4-4 4 4 0 0 1 4-4Z" fill="#a8b3db" class="fill-a8dba8"></path><path d="M3 37h12v8H3z" fill="#7a87bf" class="fill-79bd9a"></path><path d="M15 37h12v8H15zM27 37h12v8H27zM39 37h12v8H39zM3 45h12v8H3zM15 45h12v8H15zM27 45h12v8H27z" fill="#7991e8" class="fill-cff09e"></path><path d="M39 45h12v8H39zM3 53h12v8H3zM15 53h12v8H15zM27 53h12v8H27zM39 53h12v8H39z" fill="#7a87bf" class="fill-79bd9a"></path><path d="M3 27v10h48V27Zm9 7a2 2 0 1 1 2-2 2 2 0 0 1-2 2Zm10 0a2 2 0 1 1 2-2 2 2 0 0 1-2 2Zm10 0a2 2 0 1 1 2-2 2 2 0 0 1-2 2Zm10 0a2 2 0 1 1 2-2 2 2 0 0 1-2 2Z" fill="#a8b3db" class="fill-a8dba8"></path></g><g data-name="Stroke Close copy 3"><path d="M61 2H27a5 5 0 0 0-5 5v14a6 6 0 0 0-5 2.69A6 6 0 0 0 6.09 26H3a1 1 0 0 0-1 1v34a1 1 0 0 0 1 1h48a1 1 0 0 0 1-1v-5h9a1 1 0 0 0 1-1V3a1 1 0 0 0-1-1ZM27 4h33v2H42a1 1 0 0 0 0 2h18v2H27a3 3 0 0 1 0-6Zm-5 19v3h-3.86A4 4 0 0 1 22 23Zm2 .56A4 4 0 0 1 25.86 26H24ZM12 23a4 4 0 0 1 3.86 3H8.14A4 4 0 0 1 12 23Zm-8 5h2.09A6 6 0 0 0 12 33a1 1 0 0 0 0-2 4 4 0 0 1-3.86-3h8A6 6 0 0 0 22 33a1 1 0 0 0 0-2 4 4 0 0 1-3.86-3h8A6 6 0 0 0 32 33a1 1 0 0 0 0-2 4 4 0 0 1-3.86-3h8A6 6 0 0 0 42 33a1 1 0 0 0 0-2 4 4 0 0 1-3.86-3H50v8H4Zm24.14-2a4 4 0 0 1 7.72 0Zm10 0a4 4 0 0 1 7.72 0ZM4 52v-2h29a1 1 0 0 0 0-2H4v-2h34v6Zm46-14v2H21a1 1 0 0 0 0 2h29v2H16v-6Zm-36 6H4v-6h10Zm26 2h10v6H40ZM4 54h10v6H4Zm12 0h10v6H16Zm12 0h10v6H28Zm22 6H40v-6h10Zm2-6V27a1 1 0 0 0-1-1h-3.09A6 6 0 0 0 37 23.69a6 6 0 0 0-10 0 6 6 0 0 0-3-2.34V11a4.92 4.92 0 0 0 3 1h33v42Z" fill="#3b47b3" class="fill-3b8686"></path><path d="M29 8h7a1 1 0 0 0 0-2h-7a1 1 0 0 0 0 2ZM55 16a1 1 0 0 0-1-1H34a1 1 0 0 0 0 2h20a1 1 0 0 0 1-1ZM56 21h-5a1 1 0 0 0 0 2h5a1 1 0 0 0 0-2Z" fill="#3b47b3" class="fill-3b8686"></path></g></svg>